<?xml version="1.0" encoding="UTF-8"?>
<!DOCTYPE svg PUBLIC "-//W3C//DTD SVG 1.1//EN" "http://www.w3.org/Graphics/SVG/1.1/DTD/svg11.dtd">
<svg version="1.2" width="143.72mm" height="25.49mm" viewBox="3187 14598 14372 2549" preserveAspectRatio="xMidYMid" fill-rule="evenodd" stroke-width="28.222" stroke-linejoin="round" xmlns="http://www.w3.org/2000/svg" xmlns:ooo="http://xml.openoffice.org/svg/export" xmlns:xlink="http://www.w3.org/1999/xlink" xmlns:presentation="http://sun.com/xmlns/staroffice/presentation" xmlns:smil="http://www.w3.org/2001/SMIL20/" xmlns:anim="urn:oasis:names:tc:opendocument:xmlns:animation:1.0" xml:space="preserve">
 <defs class="ClipPathGroup">
  <clipPath id="presentation_clip_path" clipPathUnits="userSpaceOnUse">
   <rect x="3187" y="14598" width="14372" height="2549"/>
  </clipPath>
  <clipPath id="presentation_clip_path_shrink" clipPathUnits="userSpaceOnUse">
   <rect x="3201" y="14600" width="14344" height="2544"/>
  </clipPath>
 </defs>
 <defs class="TextShapeIndex">
  <g ooo:slide="id1" ooo:id-list="id3 id4 id5 id6 id7 id8 id9"/>
 </defs>
 <defs class="EmbeddedBulletChars">
  <g id="bullet-char-template-57356" transform="scale(0.00048828125,-0.00048828125)">
   <path d="M 580,1141 L 1163,571 580,0 -4,571 580,1141 Z"/>
  </g>
  <g id="bullet-char-template-57354" transform="scale(0.00048828125,-0.00048828125)">
   <path d="M 8,1128 L 1137,1128 1137,0 8,0 8,1128 Z"/>
  </g>
  <g id="bullet-char-template-10146" transform="scale(0.00048828125,-0.00048828125)">
   <path d="M 174,0 L 602,739 174,1481 1456,739 174,0 Z M 1358,739 L 309,1346 659,739 1358,739 Z"/>
  </g>
  <g id="bullet-char-template-10132" transform="scale(0.00048828125,-0.00048828125)">
   <path d="M 2015,739 L 1276,0 717,0 1260,543 174,543 174,936 1260,936 717,1481 1274,1481 2015,739 Z"/>
  </g>
  <g id="bullet-char-template-10007" transform="scale(0.00048828125,-0.00048828125)">
   <path d="M 0,-2 C -7,14 -16,27 -25,37 L 356,567 C 262,823 215,952 215,954 215,979 228,992 255,992 264,992 276,990 289,987 310,991 331,999 354,1012 L 381,999 492,748 772,1049 836,1024 860,1049 C 881,1039 901,1025 922,1006 886,937 835,863 770,784 769,783 710,716 594,584 L 774,223 C 774,196 753,168 711,139 L 727,119 C 717,90 699,76 672,76 641,76 570,178 457,381 L 164,-76 C 142,-110 111,-127 72,-127 30,-127 9,-110 8,-76 1,-67 -2,-52 -2,-32 -2,-23 -1,-13 0,-2 Z"/>
  </g>
  <g id="bullet-char-template-10004" transform="scale(0.00048828125,-0.00048828125)">
   <path d="M 285,-33 C 182,-33 111,30 74,156 52,228 41,333 41,471 41,549 55,616 82,672 116,743 169,778 240,778 293,778 328,747 346,684 L 369,508 C 377,444 397,411 428,410 L 1163,1116 C 1174,1127 1196,1133 1229,1133 1271,1133 1292,1118 1292,1087 L 1292,965 C 1292,929 1282,901 1262,881 L 442,47 C 390,-6 338,-33 285,-33 Z"/>
  </g>
  <g id="bullet-char-template-9679" transform="scale(0.00048828125,-0.00048828125)">
   <path d="M 813,0 C 632,0 489,54 383,161 276,268 223,411 223,592 223,773 276,916 383,1023 489,1130 632,1184 813,1184 992,1184 1136,1130 1245,1023 1353,916 1407,772 1407,592 1407,412 1353,268 1245,161 1136,54 992,0 813,0 Z"/>
  </g>
  <g id="bullet-char-template-8226" transform="scale(0.00048828125,-0.00048828125)">
   <path d="M 346,457 C 273,457 209,483 155,535 101,586 74,649 74,723 74,796 101,859 155,911 209,963 273,989 346,989 419,989 480,963 531,910 582,859 608,796 608,723 608,648 583,586 532,535 482,483 420,457 346,457 Z"/>
  </g>
  <g id="bullet-char-template-8211" transform="scale(0.00048828125,-0.00048828125)">
   <path d="M -4,459 L 1135,459 1135,606 -4,606 -4,459 Z"/>
  </g>
  <g id="bullet-char-template-61548" transform="scale(0.00048828125,-0.00048828125)">
   <path d="M 173,740 C 173,903 231,1043 346,1159 462,1274 601,1332 765,1332 928,1332 1067,1274 1183,1159 1299,1043 1357,903 1357,740 1357,577 1299,437 1183,322 1067,206 928,148 765,148 601,148 462,206 346,322 231,437 173,577 173,740 Z"/>
  </g>
 </defs>
 <defs class="TextEmbeddedBitmaps"/>
 <g class="SlideGroup">
  <g>
   <g id="container-id1">
    <g id="id1" class="Slide" clip-path="url(#presentation_clip_path)">
     <g class="Page">
      <g class="com.sun.star.drawing.ClosedBezierShape">
       <g id="id3">
        <rect class="BoundingBox" stroke="none" fill="none" x="3186" y="14733" width="2231" height="2373"/>
        <path fill="rgb(0,122,213)" stroke="none" d="M 5416,14733 L 4599,17105 3994,17105 3187,14733 3763,14733 4257,16384 C 4283,16473 4299,16552 4305,16620 L 4315,16620 C 4323,16546 4340,16465 4366,16377 L 4857,14733 5416,14733 Z"/>
       </g>
      </g>
      <g class="com.sun.star.drawing.ClosedBezierShape">
       <g id="id4">
        <rect class="BoundingBox" stroke="none" fill="none" x="5250" y="15370" width="1623" height="1777"/>
        <path fill="rgb(0,122,213)" stroke="none" d="M 6872,16407 L 5768,16407 C 5785,16653 5940,16776 6232,16776 6419,16776 6582,16732 6724,16643 L 6724,17021 C 6567,17104 6364,17146 6113,17146 5840,17146 5628,17070 5477,16919 5326,16767 5250,16556 5250,16285 5250,16003 5332,15781 5495,15616 5658,15452 5859,15370 6097,15370 6344,15370 6535,15443 6670,15590 6805,15737 6872,15936 6872,16187 L 6872,16407 Z M 6388,16086 C 6388,15844 6290,15722 6093,15722 6010,15722 5937,15757 5876,15826 5815,15896 5778,15982 5764,16086 L 6388,16086 Z"/>
       </g>
      </g>
      <g class="com.sun.star.drawing.ClosedBezierShape">
       <g id="id5">
        <rect class="BoundingBox" stroke="none" fill="none" x="7004" y="14606" width="1522" height="2500"/>
        <path fill="rgb(222,0,0)" stroke="none" d="M 8525,17105 C 8018,17105 7512,17105 7005,17105 7005,17033 7005,16960 7005,16888 7288,16524 7572,16161 7855,15797 7600,15797 7345,15797 7089,15797 7089,15668 7089,15540 7089,15411 7566,15411 8042,15411 8518,15411 8518,15497 8518,15583 8518,15669 8250,16019 7981,16370 7713,16720 7984,16720 8254,16720 8525,16720 8525,16848 8525,16976 8525,17105 Z M 8406,14606 C 8275,14785 8143,14964 8012,15143 7875,15143 7739,15143 7602,15143 7472,14964 7343,14785 7213,14606 7326,14606 7439,14606 7552,14606 7638,14710 7723,14813 7809,14917 7895,14813 7981,14710 8067,14606 8180,14606 8293,14606 8406,14606 Z"/>
       </g>
      </g>
      <g class="com.sun.star.drawing.ClosedBezierShape">
       <g id="id6">
        <rect class="BoundingBox" stroke="none" fill="none" x="8805" y="14598" width="1762" height="2550"/>
        <path fill="rgb(0,122,213)" stroke="none" d="M 9334,16908 L 9328,16908 9328,17105 8805,17105 8805,14598 9328,14598 9328,15666 9334,15666 C 9463,15469 9647,15370 9885,15370 10103,15370 10271,15445 10389,15595 10507,15745 10566,15950 10566,16210 10566,16493 10497,16719 10360,16890 10222,17061 10038,17147 9807,17147 9599,17147 9441,17067 9334,16908 Z M 9319,16194 L 9319,16368 C 9319,16477 9351,16567 9414,16639 9476,16710 9557,16746 9655,16746 9774,16746 9866,16700 9932,16608 9998,16516 10030,16386 10030,16217 10030,16077 10000,15968 9940,15889 9880,15810 9795,15771 9683,15771 9578,15771 9492,15810 9423,15888 9354,15966 9319,16068 9319,16194 Z"/>
       </g>
      </g>
      <g class="com.sun.star.drawing.ClosedBezierShape">
       <g id="id7">
        <rect class="BoundingBox" stroke="none" fill="none" x="10779" y="15370" width="1536" height="1777"/>
        <path fill="rgb(242,202,0)" stroke="none" d="M 12314,17105 L 11819,17105 11819,16862 11813,16862 C 11699,17051 11531,17146 11308,17146 11144,17146 11015,17100 10920,17006 10826,16913 10779,16789 10779,16634 10779,16305 10974,16115 11363,16065 L 11823,16003 C 11823,15818 11722,15726 11522,15726 11320,15726 11128,15786 10946,15906 L 10946,15512 C 11019,15475 11118,15442 11245,15413 11371,15384 11486,15370 11589,15370 12072,15370 12314,15611 12314,16093 L 12314,17105 Z M 11823,16417 L 11823,16303 11515,16342 C 11345,16364 11260,16441 11260,16572 11260,16632 11281,16681 11322,16719 11364,16757 11420,16776 11490,16776 11588,16776 11668,16742 11730,16674 11792,16606 11823,16521 11823,16417 Z"/>
       </g>
      </g>
      <g class="com.sun.star.drawing.ClosedBezierShape">
       <g id="id8">
        <rect class="BoundingBox" stroke="none" fill="none" x="12725" y="15370" width="2690" height="1736"/>
        <path fill="rgb(0,122,213)" stroke="none" d="M 15414,17105 L 14893,17105 14893,16139 C 14893,15893 14803,15770 14622,15770 14536,15770 14466,15807 14412,15881 14358,15955 14331,16047 14331,16157 L 14331,17105 13808,17105 13808,16129 C 13808,15890 13719,15770 13542,15770 13453,15770 13381,15806 13328,15876 13274,15947 13248,16043 13248,16164 L 13248,17105 12725,17105 12725,15411 13248,15411 13248,15676 13254,15676 C 13308,15586 13384,15512 13482,15455 13579,15398 13686,15370 13802,15370 14041,15370 14205,15475 14293,15686 14422,15475 14611,15370 14862,15370 15230,15370 15414,15597 15414,16051 L 15414,17105 Z"/>
       </g>
      </g>
      <g class="com.sun.star.drawing.ClosedBezierShape">
       <g id="id9">
        <rect class="BoundingBox" stroke="none" fill="none" x="15726" y="15370" width="1834" height="1777"/>
        <path fill="rgb(68,173,71)" stroke="none" d="M 16635,17146 C 16353,17146 16131,17067 15969,16909 15808,16751 15727,16536 15727,16265 15727,15985 15811,15766 15978,15607 16146,15449 16373,15370 16658,15370 16939,15370 17160,15449 17320,15607 17479,15766 17559,15975 17559,16235 17559,16516 17477,16738 17312,16901 17147,17065 16922,17146 16635,17146 Z M 16648,15770 C 16525,15770 16429,15813 16360,15898 16292,15982 16258,16103 16258,16258 16258,16583 16389,16746 16651,16746 16902,16746 17027,16579 17027,16245 17027,15928 16901,15770 16648,15770 Z"/>
       </g>
      </g>
     </g>
    </g>
   </g>
  </g>
 </g>
</svg>